HIERARCHY
ROOT pelvis
{
  OFFSET 53.7158 82.5031 -13.6175
  CHANNELS 6 Xposition Yposition Zposition Zrotation Xrotation Yrotation
  JOINT lfemur
  {
    OFFSET 9.91476 0 0
    CHANNELS 3 Zrotation Xrotation Yrotation
    JOINT ltibia
    {
      OFFSET 0.000851632 -0.000136701 -40.2914
      CHANNELS 3 Zrotation Xrotation Yrotation
      JOINT lfoot
      {
        OFFSET -0.000133128 -1.85254e-005 -36.8936
        CHANNELS 3 Zrotation Xrotation Yrotation
        End Site
        {
          OFFSET 11.5839 0 0
        }
      }
    }
  }
  JOINT spine
  {
    OFFSET -1.19492 15.6277 -4.07937
    CHANNELS 3 Zrotation Xrotation Yrotation
    JOINT spine2
    {
      OFFSET 0 0 14.53
      CHANNELS 3 Zrotation Xrotation Yrotation
      JOINT neck
      {
        OFFSET 0 14.5288 0
        CHANNELS 3 Zrotation Xrotation Yrotation
        JOINT head
        {
          OFFSET -2.40391 -0.849546 3.98929
          CHANNELS 3 Zrotation Xrotation Yrotation
          End Site
          {
            OFFSET 0 0 0
          }
        }
        JOINT rclavicle
        {
          OFFSET 0 0 0
          CHANNELS 3 Zrotation Xrotation Yrotation
          JOINT rhumerus
          {
            OFFSET 1.72796 -15.9462 3.44903
            CHANNELS 3 Zrotation Xrotation Yrotation
            JOINT rradius
            {
              OFFSET 0.000415608 0.00115974 -25.2001
              CHANNELS 3 Zrotation Xrotation Yrotation
              JOINT rhand
              {
                OFFSET -9.05072e-005 0 -21.7504
                CHANNELS 3 Zrotation Xrotation Yrotation
                End Site
                {
                  OFFSET 0 0 0
                }
              }
            }
          }
        }
        JOINT lclavicle
        {
          OFFSET 0 0 0
          CHANNELS 3 Zrotation Xrotation Yrotation
          JOINT lhumerus
          {
            OFFSET 1.16099 15.3544 5.94076
            CHANNELS 3 Zrotation Xrotation Yrotation
            JOINT lradius
            {
              OFFSET -0.000360948 -0.00153727 -25.2001
              CHANNELS 3 Zrotation Xrotation Yrotation
              JOINT lhand
              {
                OFFSET -1.64404e-005 -0.000133869 -21.7504
                CHANNELS 3 Zrotation Xrotation Yrotation
                End Site
                {
                  OFFSET 0 0 0
                }
              }
            }
          }
        }
      }
    }
  }
  JOINT rfemur
  {
    OFFSET -9.91476 0 0
    CHANNELS 3 Zrotation Xrotation Yrotation
    JOINT rtibia
    {
      OFFSET 0.0170252 0.0040913 -40.2913
      CHANNELS 3 Zrotation Xrotation Yrotation
      JOINT rfoot
      {
        OFFSET -0.000256556 0 -36.8936
        CHANNELS 3 Zrotation Xrotation Yrotation
        End Site
        {
          OFFSET 11.5839 0 0
        }
      }
    }
  }
}
MOTION
Frames:	11
Frame Time:	0.0333333
53.7158 82.5031 -13.6175 -2.36603 1.15931 -2.62615 -86.7437 -6.31025 -87.537 0.0019213 -0.000160633 -0.00140472 -12.2011 -1.69721 8.02654 -89.5113 0.19271 -88.7766 -112.073 87.3672 -158.298 -90 -3.50835e-015 -90 5.21823 4.89664 -3.43069 8.76543 6.90544 -1.06214 -99.7008 -25.6119 -91.5949 38.852 -3.33037 -4.12921 -0.273282 -13.3398 -2.51461 -6.63835 0.58435 0.0678953 102.218 11.8622 -78.6375 -69.3329 11.4461 -4.28468 0.206599 11.1925 -1.34126 -89.1612 13.7932 -89.3636 -0.00351217 0.00572271 1.44609 19.8994 4.36338 12.008 
53.7203 82.5043 -13.6236 -2.36306 1.15069 -2.63856 -86.7536 -6.26168 -87.5321 0.00193057 0.000230727 0.000320316 -12.1262 -1.68686 8.02979 -89.5068 0.190524 -88.7779 -112.253 87.3639 -158.118 -90 -3.50835e-015 -90 5.28061 4.94215 -3.49343 8.78649 6.89942 -1.06335 -99.7145 -25.6473 -91.6122 38.8226 -3.33604 -4.14074 -0.277698 -13.3288 -2.5127 -6.67535 0.590002 0.0694361 102.258 11.9046 -78.5878 -69.3466 11.5534 -4.32093 0.203926 11.1309 -1.31529 -89.1619 13.8159 -89.3837 -0.00351179 -0.00105668 1.45531 19.934 4.37814 12.0248 
53.7185 82.5027 -13.6279 -2.36051 1.14642 -2.64409 -86.7544 -6.251 -87.5295 0.00191595 0.000176614 0.000159761 -12.1104 -1.68359 8.0253 -89.5046 0.189945 -88.7793 -112.34 87.3622 -158.029 -90 -3.50835e-015 -90 5.3025 4.95926 -3.51443 8.7908 6.8948 -1.06374 -99.7244 -25.629 -91.6282 38.798 -3.34263 -4.1521 -0.280696 -13.2978 -2.57622 -6.68135 0.597915 0.0698168 102.269 11.9765 -78.5724 -69.3553 11.6563 -4.35674 0.20177 11.0137 -1.34593 -89.1711 13.8057 -89.3601 -0.00350999 0.00389586 1.43388 19.9338 4.37743 12.0231 
53.7146 82.4989 -13.6333 -2.35338 1.13751 -2.67159 -86.758 -6.26425 -87.5597 0.00191535 9.03808e-005 0.0857417 -12.1092 -1.67229 7.97445 -89.5012 0.185908 -88.776 -112.422 87.3536 -157.939 -90 -3.50835e-015 -90 5.28006 4.98808 -3.57203 8.80562 6.88484 -1.06354 -99.7447 -25.5855 -91.6524 38.8217 -3.35195 -4.16048 -0.281579 -13.286 -2.59014 -6.69699 0.593795 0.0700212 102.319 12.0632 -78.5984 -69.2937 11.7078 -4.38992 0.200018 10.9842 -1.36487 -89.1829 13.7275 -89.3636 -0.00351005 0.00299546 1.44428 19.9112 4.37122 12.0212 
53.7058 82.4965 -13.636 -2.3414 1.12949 -2.70169 -86.7613 -6.31534 -87.5094 0.00195254 0.000337748 0.000596491 -12.137 -1.68821 8.02839 -89.4976 0.181536 -88.7721 -112.49 87.3438 -157.862 -90 -3.50835e-015 -90 5.23339 4.97755 -3.56916 8.82438 6.8809 -1.06526 -99.7802 -25.5073 -91.6794 38.9346 -3.36702 -4.16219 -0.282637 -13.2955 -2.58667 -6.71333 0.596461 0.0704732 102.387 12.107 -78.6793 -69.2386 11.6284 -4.37332 0.203968 11.0479 -1.37836 -89.1936 13.6536 -89.3777 -0.00351053 0.000750183 1.47134 19.9017 4.36392 12.0082 
53.6999 82.4964 -13.6379 -2.32657 1.11825 -2.73244 -86.7708 -6.38108 -87.4957 0.00193736 0.000468471 0.00195198 -12.1525 -1.69127 8.03199 -89.4917 0.173266 -88.7678 -112.644 87.3314 -157.691 -90 -3.50835e-015 -90 5.20612 4.96353 -3.5586 8.85957 6.89308 -1.07143 -99.8686 -25.3994 -91.7308 39.0739 -3.37038 -4.14573 -0.280811 -13.2903 -2.58721 -6.74211 0.601805 0.0714686 102.457 12.0955 -78.7412 -69.3022 11.5446 -4.32786 0.206198 11.0943 -1.37875 -89.2095 13.6151 -89.3796 -0.00355642 0.00288532 1.49996 19.9024 4.35586 11.9863 
53.6935 82.4978 -13.6391 -2.32092 1.11522 -2.73743 -86.7713 -6.438 -87.491 0.00193448 0.000327677 0.00109985 -12.1887 -1.69328 8.01664 -89.4867 0.172581 -88.7645 -112.791 87.3214 -157.543 -90 -3.50835e-015 -90 5.1947 4.9544 -3.52691 8.85035 6.90827 -1.07322 -99.8968 -25.2442 -91.7214 39.227 -3.38385 -4.1395 -0.278952 -13.2985 -2.67073 -6.73596 0.611512 0.0719473 102.484 12.1501 -78.6869 -69.2799 11.6767 -4.38154 0.198844 10.9842 -1.36997 -89.2033 13.5598 -89.4052 -0.00354082 -0.000502311 1.53786 19.8449 4.34042 11.9821 
53.6774 82.4975 -13.6458 -2.31498 1.10816 -2.76045 -86.7648 -6.43572 -87.4846 0.00193288 0.000150998 0.000602992 -12.1877 -1.69882 8.04237 -89.4787 0.171999 -88.7547 -112.94 87.2972 -157.391 -90 -3.50835e-015 -90 5.23012 4.94234 -3.47114 8.8513 6.92819 -1.07597 -99.9205 -25.1878 -91.7012 39.2649 -3.38761 -4.13868 -0.275454 -13.1995 -2.63915 -6.7398 0.61882 0.0733082 102.54 12.1372 -78.6769 -69.2332 11.6379 -4.378 0.197299 11.028 -1.38472 -89.1941 13.4874 -89.4269 -0.00353656 -0.000998604 1.58232 19.7945 4.31856 11.9562 
53.6496 82.498 -13.6522 -2.30797 1.10226 -2.78878 -86.753 -6.38696 -87.4765 0.00194839 0.0002398 2.68108e-005 -12.1123 -1.69522 8.0767 -89.4709 0.172474 -88.744 -113.066 87.2713 -157.262 -90 -3.50835e-015 -90 5.25557 4.94537 -3.39292 8.84764 6.9649 -1.08154 -99.9315 -25.2027 -91.6571 39.3094 -3.38468 -4.12855 -0.273467 -13.163 -2.62804 -6.74077 0.613155 0.0722796 102.601 12.0971 -78.7053 -69.2235 11.5118 -4.33362 0.197492 11.0172 -1.37484 -89.1848 13.4634 -89.421 -0.00356278 0.00225021 1.5855 19.8024 4.31472 11.9411 
53.6066 82.4998 -13.6606 -2.30351 1.09394 -2.82992 -86.7298 -6.36392 -87.4656 0.00192852 0.000375631 0.00116481 -12.0131 -1.68141 8.08101 -89.4618 0.170746 -88.731 -113.205 87.2403 -157.121 -90 -3.50835e-015 -90 5.26609 4.94212 -3.29466 8.84865 7.03667 -1.09252 -99.9467 -25.2213 -91.5974 39.3464 -3.38195 -4.11981 -0.270965 -13.217 -2.63684 -6.73421 0.57528 0.0679612 102.664 11.9892 -78.7367 -69.2928 11.3838 -4.27075 0.197519 11.051 -1.39248 -89.159 13.4557 -89.426 -0.00353973 0.00160683 1.58993 19.8408 4.3232 11.9392 
53.5498 82.4984 -13.6717 -2.30473 1.08674 -2.89488 -86.6878 -6.40497 -87.4517 0.00194068 0.000253817 0.000179304 -11.9932 -1.67831 8.08025 -89.4499 0.168409 -88.7168 -113.421 87.2047 -156.903 -90 -3.50835e-015 -90 5.2627 4.91194 -3.18383 8.86213 7.13675 -1.10986 -99.9374 -25.1822 -91.4909 39.3862 -3.39403 -4.1288 -0.269103 -13.2092 -2.67718 -6.71311 0.514136 0.0603756 102.745 11.8202 -78.6961 -69.1724 11.2482 -4.24749 0.200046 11.1634 -1.42269 -89.1168 13.4412 -89.4302 -0.0035514 0.00197771 1.58547 19.8849 4.33207 11.9348 
